#!OML:ASF F:\VICON\USERDATA\INSTALL\rory3\rory3.ASF
:FULLY-SPECIFIED
:DEGREES
149
root -0.6003520290330516 17.160858372791147 37.94087061593586 0.8869533129441334 3.0753980230099005 2.8113324207879486
lfemur -11.149607801467116 -3.3033468869417755 -31.80258464750387
ltibia 16.732076950491212
lfoot -12.069204757404085 -6.300520271519563
ltoes -5.7768143890937225
rfemur -21.223126572369228 -7.249715886051447 13.221293109323327
rtibia 67.33095376866167
rfoot 11.280701274064764 0.001281107003628712
rtoes -11.044994816443229
lowerback 1.0 -1.105967588809602 -5.198551444448391
upperback 0.37295349833200675 -0.08702033955936095 -1.3854478044531435
thorax -8.919115181825982 -0.5128051131207583 2.5187457693387305
lowerneck -14.337032628613024 -4.5573730743654135 -2.0744551582843584
upperneck 8.314028083100041 -5.054147662162615 4.92932173423661
head 5.463018340306584 -2.1974406722379944 1.7075874419730743
lclavicle 1.8715741394830634e-14 4.556443651926706e-15
lhumerus -49.19917991494725 -5.5832234049930065 92.2402637394178
lradius 128.12345772624954
lwrist 16.040879527877294
lhand -33.69520513281531 -5.828435213585386
lfingers nan
lthumb -7.3861894749869155 23.718569154439365
rclavicle 2.3075698716951816e-14 7.638187030765048e-15
rhumerus -61.548031130896334 2.016512863303074 -90.98718791410933
rradius 106.47956347848594
rwrist 4.7395563011788795
rhand -20.57855765844097 1.0
rfingers nan
rthumb 5.701479747613937 3.123343586182351
150
root -0.5814715001269901 17.138782383716343 38.540292955119725 1.1319311418142641 3.402219096508044 2.8719586487534334
lfemur -9.141199359603135 -4.2012338679082895 -31.862323142081706
ltibia 17.107846540836903
lfoot -12.6526354951286 -7.679011857177435
ltoes 2.917179564496138
rfemur -23.888784194488508 -8.197661334151842 12.53664533580071
rtibia 68.63086430855648
rfoot 9.764746133169695 -0.3153703327857409
rtoes -10.344832325135465
lowerback 1.0 -1.069167753808442 -4.943967873974747
upperback 0.5069625730706769 -0.16433564067468942 -1.5129770815293686
thorax -8.969557608237988 -0.5919046980131926 2.509425534089295
lowerneck -14.725929111086623 -4.549723650065179 -1.864307329636945
upperneck 7.621595760391051 -5.259921250454522 4.889881445468118
head 5.312961784489891 -2.2712794672312615 1.6179902497443281
lclavicle 1.924187147147911e-14 -2.1459655594123002e-14
lhumerus -47.453043604587855 -5.679650813442879 91.90088142359498
lradius 127.81972206768998
lwrist 11.88660969604853
lhand -33.73061342232135 -5.908546973041401
lfingers nan
lthumb -7.471025329742487 23.60967843523696
rclavicle 2.3450516292350822e-14 -1.8432931618924675e-14
rhumerus -61.593757830929576 1.844369145554177 -90.6629866488732
rradius 105.17021850807676
rwrist 3.4650658895644995
rhand -21.52165439250452 1.0
rfingers nan
rthumb 4.818380218563725 1.968013164754396
151
root -0.5691826716122284 17.143120611587165 38.88572366268509 1.6308440384428975 3.1683841665064367 2.230375310319241
lfemur -7.155446825954462 -4.146657324177291 -31.39829490708444
ltibia 17.291742623717752
lfoot -14.223868225929436 -5.177815305209132
ltoes -1.4232483670131657
rfemur -26.98623258405305 -8.41136993540535 13.324612854832804
rtibia 69.46910545652946
rfoot 8.622490416590537 -1.3044832410571727
rtoes -9.094289472685228
lowerback 1.0 -0.9915745811123557 -4.3661964512615095
upperback 0.5075711384641842 -0.08388172530931648 -1.3297806769582186
thorax -8.554970818756654 -0.5970451787975839 2.4792271149401373
lowerneck -17.34372761729736 -4.606435452939402 -1.4967743414134174
upperneck 9.405085735386766 -5.538210956521745 4.097164452552104
head 6.201285573954107 -2.344429584044164 1.215026586553393
lclavicle -9.97929042624586e-15 1.102908438383463e-14
lhumerus -45.88241768442443 -5.628471972181624 91.74087423671237
lradius 127.39491306060351
lwrist 7.3506754560510075
lhand -33.49947819448956 -6.43800233999431
lfingers nan
lthumb -7.282002274478791 23.051366200323205
rclavicle -6.30717712716059e-15 1.4125619517639946e-14
rhumerus -61.83636726978169 1.7906387033396367 -90.308083633834
rradius 104.53243503653907
rwrist 1.4670552348485018
rhand -21.657406583085372 1.0
rfingers nan
rthumb 4.720966709143721 0.5341228210560507
152
root -0.5768826658716246 17.17393925327361 38.902357127683196 2.288537274099764 2.545177973475824 1.1961785829887734
lfemur -5.649920835127979 -3.594353519959217 -30.456408642546535
ltibia 17.22695684097645
lfoot -15.674512828921323 -1.5855284335056155
ltoes -8.43415538018129
rfemur -30.428658610680483 -8.116340897095704 15.046783489561065
rtibia 69.76081876306283
rfoot 7.979254366929826 -2.78219481185179
rtoes -9.181972297705247
lowerback 1.0 -0.8764269951052635 -3.6817966687453545
upperback 0.24837427574451454 0.12518858008686629 -0.9861480764019783
thorax -8.4424358353321 -0.5419594883739922 2.434987790102703
lowerneck -17.39073036136433 -4.530256043109324 -1.6602735627612977
upperneck 9.139054670289037 -5.426047334504225 4.309423788721218
head 6.141830972130425 -2.276488054560217 1.3148208418861875
lclavicle 1.4754068019916545e-14 1.2508265854704645e-14
lhumerus -44.79979358574989 -5.594304207737261 91.79209170972261
lradius 127.16585836668304
lwrist 2.8827367557157366
lhand -33.68295536836258 -6.423413547810763
lfingers nan
lthumb -7.4727680678465305 23.02864078604521
rclavicle 1.803556323435438e-14 1.5121434358789887e-14
rhumerus -62.23010940355732 1.76422879586441 -89.97810389037114
rradius 104.55470348519198
rwrist -0.7211321064245553
rhand -21.643094452023256 1.0
rfingers nan
rthumb 4.748076481617272 -1.2170349758667651
153
root -0.5485254044326386 17.235839618694044 39.71462975408179 2.599026708777312 2.2108589691348652 0.7378368884030757
lfemur -4.019320165848367 -3.14000319978697 -30.1248514090911
ltibia 16.735604035550182
lfoot -15.745319851150928 0.7164486394817402
ltoes -12.740043435917638
rfemur -33.040927926057435 -8.012874536764688 16.01600836104499
rtibia 68.71697704733842
rfoot 6.627450995284997 -4.066479711413251
rtoes -19.50686955172666
lowerback 1.0 -0.859419903367856 -3.39935209972404
upperback 0.15432201139699853 0.14899171012431234 -0.823418999066299
thorax -8.088438375473027 -0.5626028269119749 2.469807055360297
lowerneck -16.984363751236152 -4.364568265633826 -1.7681955211414877
upperneck 8.780264029791589 -5.208407026597693 4.4437597287643085
head 5.990718325201532 -2.1506958302253967 1.4110812208398644
lclavicle 1.3248505428035166e-14 -7.791448609880505e-15
lhumerus -44.15594362579062 -5.482242232187907 91.88462373883111
lradius 127.25057266218482
lwrist -0.22951839279402364
lhand -33.97222813014879 -5.951971843094509
lfingers nan
lthumb -7.777664768012432 23.44919526649683
rclavicle 1.6781606400607726e-14 -5.0027730268727614e-15
rhumerus -62.57201511749912 1.9195370901520086 -89.87431859550527
rradius 104.92049990641821
rwrist -3.222053772057029
rhand -21.499623704264202 1.0
rfingers nan
rthumb 4.884615900684589 -1.6608125467671062
154
root -0.5098523363305776 17.301700059930035 40.52481375190754 2.552960321001081 2.1181367033173473 0.517394306232565
lfemur -1.7980269144159564 -2.945877411268108 -29.97618104168616
ltibia 16.09230450767803
lfoot -15.703032813075342 2.7482860090531176
ltoes -16.528832971213202
rfemur -35.431486228807486 -8.136699903366459 16.717217018677488
rtibia 67.1269029227843
rfoot 4.6682191875768195 -5.428008637160498
rtoes -20.296940057357265
lowerback 1.0 -0.9499032431089085 -3.228593786758644
upperback 0.13948752224331729 0.00336357913016494 -0.6532408914089107
thorax -7.8694074466673705 -0.6584948221912086 2.5919724522931804
lowerneck -16.69063070924025 -4.1561329512319105 -1.7071666123104947
upperneck 9.20430161658106 -4.958313004493779 4.241014478262429
head 6.052579078149394 -2.027554336835051 1.3723498767683155
lclavicle 5.331566506311938e-15 -6.441963462822682e-15
lhumerus -43.93046036712006 -5.307132856251394 91.95573183205782
lradius 127.67115424769298
lwrist -0.9850099310498166
lhand -33.448807667626255 -5.620263929573432
lfingers nan
lthumb -7.307335585328709 23.73619718109178
rclavicle 9.01610930393786e-15 -3.617245395519128e-15
rhumerus -62.782800947261265 2.335712493733002 -89.98547763451076
rradius 105.50356130613388
rwrist -6.264952304212952
rhand -21.258801250992622 1.0
rfingers nan
rthumb 5.115480524529924 -1.5271025619391665
155
root -0.47419255109595765 17.360707670447947 41.146594984797176 2.5875922628112957 2.0258972048465953 0.29506940813941407
lfemur 0.3364145504927727 -2.9936198158436627 -29.72567107622402
ltibia 15.199790576907276
lfoot -14.737859331201015 -0.09093956777554624
ltoes -10.419744319204188
rfemur -37.97757515063505 -8.093253723314323 17.534140496395835
rtibia 64.78144213648274
rfoot 3.3061750602538917 -6.759029778021367
rtoes -18.492804227188426
lowerback 1.0 -1.0928674357988495 -3.184341650965404
upperback 0.13144687340137273 -0.21134761467200391 -0.39161991531416707
thorax -7.640321003196246 -0.7722219202550598 2.8497387553968556
lowerneck -16.61264814286362 -4.026698904982652 -1.844962359355646
upperneck 9.761797236705988 -4.773900028795893 4.1928308439261475
head 6.187722835522991 -1.9428312838978619 1.4111585884540898
lclavicle 1.3425276194669696e-14 -1.5624068330130943e-14
lhumerus -43.8854859340019 -5.05306374508973 92.02254368556721
lradius 128.4611832924128
lwrist 0.6214512475244689
lhand -33.10442638358569 -5.6487083772862645
lfingers nan
lthumb -7.022065783725676 23.654133973860453
rclavicle 1.744564611954903e-14 -1.2655460729127204e-14
rhumerus -62.8404817267284 2.8821316747457857 -90.16239629438476
rradius 106.34844619490356
rwrist -8.864639112778288
rhand -20.675142625776513 1.0
rfingers nan
rthumb 5.680178780540444 -0.7912796995274398
